<svg width="1573" height="360" viewBox="0 0 1573 360" fill="none" xmlns="http://www.w3.org/2000/svg">
<path d="M0.760001 281L110.564 8.236H153.632L263.048 281H206.788L122.204 57.124H141.604L55.856 281H0.760001ZM58.96 230.172V185.94H205.624V230.172H58.96ZM331.757 282.552L253.381 93.596H308.477L360.469 237.932H341.845L395.777 93.596H451.261L367.841 282.552H331.757ZM279.765 359.376L336.801 238.708L367.841 282.552L333.697 359.376H279.765ZM556.752 284.88C537.869 284.88 520.797 280.612 505.536 272.076C490.533 263.281 478.505 251.512 469.452 236.768C460.657 221.765 456.26 205.081 456.26 186.716C456.26 168.351 460.657 151.925 469.452 137.44C478.247 122.696 490.275 111.056 505.536 102.52C520.797 93.7253 537.74 89.328 556.364 89.328C575.505 89.328 592.577 93.7253 607.58 102.52C622.841 111.056 634.869 122.696 643.664 137.44C652.459 151.925 656.856 168.351 656.856 186.716C656.856 205.081 652.459 221.765 643.664 236.768C634.869 251.512 622.841 263.281 607.58 272.076C592.577 280.612 575.635 284.88 556.752 284.88ZM556.364 237.544C565.935 237.544 574.341 235.475 581.584 231.336C589.085 226.939 594.776 220.989 598.656 213.488C602.795 205.728 604.864 196.933 604.864 187.104C604.864 177.275 602.795 168.609 598.656 161.108C594.517 153.607 588.827 147.787 581.584 143.648C574.341 139.251 565.935 137.052 556.364 137.052C547.052 137.052 538.775 139.251 531.532 143.648C524.289 147.787 518.599 153.607 514.46 161.108C510.321 168.609 508.252 177.275 508.252 187.104C508.252 196.933 510.321 205.728 514.46 213.488C518.599 220.989 524.289 226.939 531.532 231.336C538.775 235.475 547.052 237.544 556.364 237.544ZM695.01 281V8.236H747.778V281H695.01ZM866.118 281V8.236H918.886V281H866.118ZM728.378 163.436V116.876H880.862V163.436H728.378ZM1047.59 284.88C1030.52 284.88 1015.12 280.612 1001.42 272.076C987.706 263.54 976.971 251.9 969.211 237.156C961.451 222.412 957.571 205.857 957.571 187.492C957.571 168.868 961.451 152.184 969.211 137.44C976.971 122.696 987.706 111.056 1001.42 102.52C1015.12 93.984 1030.52 89.716 1047.59 89.716C1061.04 89.716 1073.07 92.432 1083.67 97.864C1094.28 103.296 1102.68 110.927 1108.89 120.756C1115.36 130.327 1118.85 141.191 1119.37 153.348V220.86C1118.85 233.276 1115.36 244.269 1108.89 253.84C1102.68 263.411 1094.28 271.041 1083.67 276.732C1073.07 282.164 1061.04 284.88 1047.59 284.88ZM1056.9 237.932C1071.13 237.932 1082.64 233.276 1091.43 223.964C1100.23 214.393 1104.62 202.107 1104.62 187.104C1104.62 177.275 1102.55 168.609 1098.42 161.108C1094.54 153.348 1088.97 147.399 1081.73 143.26C1074.75 138.863 1066.47 136.664 1056.9 136.664C1047.59 136.664 1039.31 138.863 1032.07 143.26C1025.08 147.399 1019.52 153.348 1015.38 161.108C1011.5 168.609 1009.56 177.275 1009.56 187.104C1009.56 197.192 1011.5 206.116 1015.38 213.876C1019.52 221.377 1025.08 227.327 1032.07 231.724C1039.31 235.863 1047.59 237.932 1056.9 237.932ZM1101.91 281V230.56L1110.06 184.776L1101.91 139.768V93.596H1152.35V281H1101.91ZM1197.31 281V0.475981H1248.14V281H1197.31ZM1371.55 284.88C1354.48 284.88 1339.09 280.612 1325.38 272.076C1311.67 263.54 1300.94 251.9 1293.18 237.156C1285.42 222.412 1281.54 205.857 1281.54 187.492C1281.54 168.868 1285.42 152.184 1293.18 137.44C1300.94 122.696 1311.67 111.056 1325.38 102.52C1339.09 93.984 1354.48 89.716 1371.55 89.716C1385 89.716 1397.03 92.432 1407.64 97.864C1418.24 103.296 1426.65 110.927 1432.86 120.756C1439.32 130.327 1442.81 141.191 1443.33 153.348V220.86C1442.81 233.276 1439.32 244.269 1432.86 253.84C1426.65 263.411 1418.24 271.041 1407.64 276.732C1397.03 282.164 1385 284.88 1371.55 284.88ZM1380.86 237.932C1395.09 237.932 1406.6 233.276 1415.4 223.964C1424.19 214.393 1428.59 202.107 1428.59 187.104C1428.59 177.275 1426.52 168.609 1422.38 161.108C1418.5 153.348 1412.94 147.399 1405.7 143.26C1398.71 138.863 1390.43 136.664 1380.86 136.664C1371.55 136.664 1363.27 138.863 1356.03 143.26C1349.05 147.399 1343.49 153.348 1339.35 161.108C1335.47 168.609 1333.53 177.275 1333.53 187.104C1333.53 197.192 1335.47 206.116 1339.35 213.876C1343.49 221.377 1349.05 227.327 1356.03 231.724C1363.27 235.863 1371.55 237.932 1380.86 237.932ZM1425.87 281V230.56L1434.02 184.776L1425.87 139.768V93.596H1476.31V281H1425.87ZM1521.28 281V0.475981H1572.11V281H1521.28Z" fill="black"/>
</svg>
