<svg width="1963" height="550" viewBox="0 0 1963 550" fill="none" xmlns="http://www.w3.org/2000/svg">
<path d="M0 29.4228C0 13.173 14.5148 0 32.4196 0C50.3244 0 64.8392 13.173 64.8392 29.4228V287.376C64.8392 303.626 50.3244 316.799 32.4196 316.799C14.5148 316.799 0 303.626 0 287.376V29.4228Z" fill="#CEEC69"/>
<path d="M130.123 77.386L54.6248 8.46409L45.7427 13.3007L55.0689 308.335L145.222 224.5C145.074 190.778 145.222 120.275 145.222 108.018C145.222 89.0745 143.89 89.4776 130.123 77.386Z" fill="#CEEC69"/>
<path d="M290 419.577C290 435.827 275.485 449 257.58 449C239.676 449 225.161 435.827 225.161 419.577V161.624C225.161 145.374 239.676 132.201 257.58 132.201C275.485 132.201 290 145.374 290 161.624V419.577Z" fill="#296253"/>
<path d="M159.877 371.614L235.375 440.536L244.257 435.699L234.931 140.665L144.778 224.5C144.926 258.222 144.778 328.725 144.778 340.982C144.778 359.925 146.11 359.522 159.877 371.614Z" fill="#296253"/>
<path d="M368.76 449L478.564 176.236H521.632L631.048 449H574.788L490.204 225.124H509.604L423.856 449H368.76ZM426.96 398.172V353.94H573.624V398.172H426.96ZM699.757 450.552L621.381 261.596H676.477L728.469 405.932H709.845L763.777 261.596H819.261L735.841 450.552H699.757ZM647.765 527.376L704.801 406.708L735.841 450.552L701.697 527.376H647.765ZM924.752 452.88C905.869 452.88 888.797 448.612 873.536 440.076C858.533 431.281 846.505 419.512 837.452 404.768C828.657 389.765 824.26 373.081 824.26 354.716C824.26 336.351 828.657 319.925 837.452 305.44C846.247 290.696 858.275 279.056 873.536 270.52C888.797 261.725 905.74 257.328 924.364 257.328C943.505 257.328 960.577 261.725 975.58 270.52C990.841 279.056 1002.87 290.696 1011.66 305.44C1020.46 319.925 1024.86 336.351 1024.86 354.716C1024.86 373.081 1020.46 389.765 1011.66 404.768C1002.87 419.512 990.841 431.281 975.58 440.076C960.577 448.612 943.635 452.88 924.752 452.88ZM924.364 405.544C933.935 405.544 942.341 403.475 949.584 399.336C957.085 394.939 962.776 388.989 966.656 381.488C970.795 373.728 972.864 364.933 972.864 355.104C972.864 345.275 970.795 336.609 966.656 329.108C962.517 321.607 956.827 315.787 949.584 311.648C942.341 307.251 933.935 305.052 924.364 305.052C915.052 305.052 906.775 307.251 899.532 311.648C892.289 315.787 886.599 321.607 882.46 329.108C878.321 336.609 876.252 345.275 876.252 355.104C876.252 364.933 878.321 373.728 882.46 381.488C886.599 388.989 892.289 394.939 899.532 399.336C906.775 403.475 915.052 405.544 924.364 405.544ZM1063.01 449V176.236H1115.78V449H1063.01ZM1234.12 449V176.236H1286.89V449H1234.12ZM1096.38 331.436V284.876H1248.86V331.436H1096.38ZM1415.59 452.88C1398.52 452.88 1383.12 448.612 1369.42 440.076C1355.71 431.54 1344.97 419.9 1337.21 405.156C1329.45 390.412 1325.57 373.857 1325.57 355.492C1325.57 336.868 1329.45 320.184 1337.21 305.44C1344.97 290.696 1355.71 279.056 1369.42 270.52C1383.12 261.984 1398.52 257.716 1415.59 257.716C1429.04 257.716 1441.07 260.432 1451.67 265.864C1462.28 271.296 1470.68 278.927 1476.89 288.756C1483.36 298.327 1486.85 309.191 1487.37 321.348V388.86C1486.85 401.276 1483.36 412.269 1476.89 421.84C1470.68 431.411 1462.28 439.041 1451.67 444.732C1441.07 450.164 1429.04 452.88 1415.59 452.88ZM1424.9 405.932C1439.13 405.932 1450.64 401.276 1459.43 391.964C1468.23 382.393 1472.62 370.107 1472.62 355.104C1472.62 345.275 1470.55 336.609 1466.42 329.108C1462.54 321.348 1456.97 315.399 1449.73 311.26C1442.75 306.863 1434.47 304.664 1424.9 304.664C1415.59 304.664 1407.31 306.863 1400.07 311.26C1393.08 315.399 1387.52 321.348 1383.38 329.108C1379.5 336.609 1377.56 345.275 1377.56 355.104C1377.56 365.192 1379.5 374.116 1383.38 381.876C1387.52 389.377 1393.08 395.327 1400.07 399.724C1407.31 403.863 1415.59 405.932 1424.9 405.932ZM1469.91 449V398.56L1478.06 352.776L1469.91 307.768V261.596H1520.35V449H1469.91ZM1565.31 449V168.476H1616.14V449H1565.31ZM1739.55 452.88C1722.48 452.88 1707.09 448.612 1693.38 440.076C1679.67 431.54 1668.94 419.9 1661.18 405.156C1653.42 390.412 1649.54 373.857 1649.54 355.492C1649.54 336.868 1653.42 320.184 1661.18 305.44C1668.94 290.696 1679.67 279.056 1693.38 270.52C1707.09 261.984 1722.48 257.716 1739.55 257.716C1753 257.716 1765.03 260.432 1775.64 265.864C1786.24 271.296 1794.65 278.927 1800.86 288.756C1807.32 298.327 1810.81 309.191 1811.33 321.348V388.86C1810.81 401.276 1807.32 412.269 1800.86 421.84C1794.65 431.411 1786.24 439.041 1775.64 444.732C1765.03 450.164 1753 452.88 1739.55 452.88ZM1748.86 405.932C1763.09 405.932 1774.6 401.276 1783.4 391.964C1792.19 382.393 1796.59 370.107 1796.59 355.104C1796.59 345.275 1794.52 336.609 1790.38 329.108C1786.5 321.348 1780.94 315.399 1773.7 311.26C1766.71 306.863 1758.43 304.664 1748.86 304.664C1739.55 304.664 1731.27 306.863 1724.03 311.26C1717.05 315.399 1711.49 321.348 1707.35 329.108C1703.47 336.609 1701.53 345.275 1701.53 355.104C1701.53 365.192 1703.47 374.116 1707.35 381.876C1711.49 389.377 1717.05 395.327 1724.03 399.724C1731.27 403.863 1739.55 405.932 1748.86 405.932ZM1793.87 449V398.56L1802.02 352.776L1793.87 307.768V261.596H1844.31V449H1793.87ZM1889.28 449V168.476H1940.11V449H1889.28Z" fill="white"/>
</svg>
