<svg width="290" height="449" viewBox="0 0 290 449" fill="none" xmlns="http://www.w3.org/2000/svg">
<path d="M0 29.4228C0 13.173 14.5148 0 32.4196 0C50.3244 0 64.8392 13.173 64.8392 29.4228V287.376C64.8392 303.626 50.3244 316.799 32.4196 316.799C14.5148 316.799 0 303.626 0 287.376V29.4228Z" fill="#CEEC69"/>
<path d="M130.122 77.386L54.6248 8.46409L45.7427 13.3007L55.0689 308.335L145.222 224.5C145.074 190.778 145.222 120.275 145.222 108.018C145.222 89.0745 143.89 89.4776 130.122 77.386Z" fill="#CEEC69"/>
<path d="M290 419.577C290 435.827 275.485 449 257.58 449C239.676 449 225.161 435.827 225.161 419.577V161.624C225.161 145.374 239.676 132.201 257.58 132.201C275.485 132.201 290 145.374 290 161.624V419.577Z" fill="#296253"/>
<path d="M159.878 371.614L235.375 440.536L244.257 435.699L234.931 140.665L144.778 224.5C144.926 258.222 144.778 328.725 144.778 340.982C144.778 359.925 146.11 359.522 159.878 371.614Z" fill="#296253"/>
</svg>
